<svg xmlns="http://www.w3.org/2000/svg" fill="none" viewBox="0 0 24 24" height="24" width="24">
  <g id="Adb">
    <path id="Union" fill="#000000" d="m19.207 3.20703 -2.0556 2.05469C18.2987 6.50845 19 8.1721 19 10v5c0 3.866 -3.134 7 -7 7 -3.74514 0 -6.80367 -2.9411 -6.99121 -6.6396L5 15v-5c0 -1.82766 0.70057 -3.4916 1.84766 -4.73828L4.79297 3.20703l1.41406 -1.41406 2.19922 2.19922C9.45681 3.36241 10.686 3 12 3c1.3137 0 2.5424 0.36268 3.5928 0.99219l2.2002 -2.19922zM7 15l0.00684 0.2568C7.14053 17.8989 9.32472 20 12 20c2.7614 0 5 -2.2386 5 -5v-3H7zm5 -10c-2.76142 0 -5 2.23858 -5 5h10c0 -2.76142 -2.2386 -5 -5 -5m-2 2c0.5523 0 1 0.44772 1 1s-0.4477 1 -1 1c-0.55228 0 -1 -0.44772 -1 -1s0.44772 -1 1 -1m4 0c0.5523 0 1 0.44772 1 1s-0.4477 1 -1 1 -1 -0.44772 -1 -1 0.4477 -1 1 -1" stroke-width="1"></path>
  </g>
</svg>